<?xml version="1.0" standalone="no"?>
<!DOCTYPE svg PUBLIC "-//W3C//DTD SVG 20010904//EN"
 "http://www.w3.org/TR/2001/REC-SVG-20010904/DTD/svg10.dtd">
<svg version="1.0" xmlns="http://www.w3.org/2000/svg"
 width="1785.000000pt" height="1785.000000pt" viewBox="0 0 1785.000000 1785.000000"
 preserveAspectRatio="xMidYMid meet">
<metadata>
Created by potrace 1.11, written by Peter Selinger 2001-2013
</metadata>
<g transform="translate(0.000000,1785.000000) scale(0.100000,-0.100000)"
fill="#000000" stroke="none">
<path d="M7479 17796 c-119 -61 -179 -94 -219 -119 -19 -13 -44 -28 -55 -34
-159 -94 -395 -263 -535 -382 -297 -255 -510 -501 -698 -809 -62 -103 -215
-443 -226 -504 -1 -7 -10 -40 -20 -73 -10 -33 -20 -69 -22 -80 -20 -99 -35
-189 -39 -235 -7 -74 -7 -252 -1 -282 3 -12 8 -41 11 -63 8 -56 34 -135 56
-167 11 -14 19 -30 19 -36 0 -24 144 -141 233 -191 214 -117 535 -113 877 12
52 19 104 38 115 42 l20 7 -20 -16 c-11 -9 -29 -24 -40 -34 -71 -61 -253 -201
-320 -246 -149 -99 -347 -157 -620 -181 -38 -4 -81 -8 -95 -10 -14 -2 -59 -7
-100 -10 -90 -6 -202 -15 -250 -20 -19 -2 -66 -6 -105 -10 -147 -13 -274 -48
-328 -91 -52 -42 -67 -109 -36 -165 8 -15 98 -91 174 -147 77 -56 86 -65 83
-85 -5 -37 -130 -98 -345 -170 -168 -56 -552 -169 -618 -181 -52 -10 -395
-110 -520 -151 -148 -50 -243 -96 -289 -141 -32 -33 -56 -85 -51 -111 2 -10 4
-23 4 -29 1 -7 15 -25 32 -42 29 -28 70 -44 144 -56 178 -28 176 -27 163 -44
-41 -53 -149 -118 -388 -234 -124 -60 -238 -115 -255 -123 -16 -8 -102 -46
-190 -86 -88 -40 -169 -78 -181 -86 -11 -7 -23 -11 -26 -8 -3 3 -11 -1 -18
-10 -7 -8 -18 -15 -24 -15 -6 0 -45 -18 -86 -40 -41 -21 -88 -45 -105 -53 -54
-25 -149 -89 -187 -125 -58 -55 -70 -113 -36 -173 17 -30 128 -140 173 -170
40 -28 41 -29 17 -55 -19 -20 -187 -243 -214 -284 -9 -14 -33 -47 -52 -75
-440 -619 -793 -1343 -1030 -2105 -46 -148 -127 -460 -141 -543 -3 -17 -12
-59 -20 -92 -7 -33 -16 -77 -19 -97 -3 -21 -10 -58 -16 -84 -6 -25 -15 -78
-21 -119 -5 -40 -12 -83 -14 -95 -2 -12 -7 -48 -11 -79 -3 -31 -8 -65 -10 -76
-2 -11 -6 -45 -9 -75 -3 -30 -7 -71 -10 -90 -22 -167 -29 -344 -29 -700 0
-323 6 -508 18 -601 3 -19 8 -65 11 -104 9 -105 11 -121 40 -270 3 -16 19 -95
35 -175 16 -80 31 -156 34 -170 2 -14 12 -58 20 -97 9 -40 18 -87 21 -105 3
-18 8 -40 10 -48 4 -15 10 -43 20 -97 24 -126 52 -247 82 -348 40 -136 138
-421 153 -447 5 -10 10 -22 10 -28 0 -6 8 -29 19 -53 10 -23 33 -78 51 -122
18 -44 45 -108 61 -143 16 -35 29 -65 29 -68 0 -7 180 -367 189 -379 5 -5 31
-54 60 -108 53 -100 219 -377 275 -457 17 -25 36 -52 41 -61 18 -30 137 -201
150 -217 8 -10 63 -81 122 -158 204 -268 343 -424 628 -709 191 -190 210 -209
340 -320 38 -33 77 -68 87 -78 29 -28 348 -279 403 -317 28 -19 52 -37 55 -40
3 -3 50 -37 105 -77 173 -122 393 -260 660 -414 160 -92 477 -248 705 -348 41
-18 93 -42 116 -52 23 -10 46 -19 53 -19 6 0 19 -4 29 -10 67 -37 517 -198
677 -241 17 -4 68 -20 115 -34 92 -28 174 -51 212 -59 12 -3 66 -16 118 -29
52 -14 120 -30 150 -36 52 -11 71 -15 123 -26 81 -18 279 -55 317 -60 25 -3
56 -8 70 -11 14 -2 39 -6 55 -8 17 -2 57 -9 90 -15 33 -6 83 -13 110 -15 89
-9 149 -16 190 -21 259 -30 468 -39 850 -40 307 0 589 8 655 19 14 2 68 7 120
11 107 7 170 13 217 20 18 3 57 7 85 10 29 3 62 8 73 10 11 2 43 7 70 10 63 7
151 21 280 45 55 10 123 22 150 25 28 4 53 9 56 11 3 2 19 5 35 8 51 9 417 95
474 111 30 9 62 17 70 19 224 54 841 265 1050 359 25 11 100 44 168 73 285
125 897 445 910 476 2 4 8 8 12 8 9 0 240 138 250 150 3 3 59 40 124 84 66 43
124 82 130 87 6 5 85 64 176 131 156 115 391 303 490 392 259 233 493 462 631
615 46 52 95 106 109 120 80 81 520 636 520 655 0 3 7 14 15 23 100 122 411
631 546 898 33 66 65 127 69 135 47 87 202 441 262 600 40 104 146 411 153
440 2 8 13 44 25 80 11 36 37 126 56 200 19 74 41 158 49 185 8 28 16 61 19
75 2 14 20 104 39 200 35 170 39 195 53 290 3 25 8 56 10 70 9 51 33 248 40
320 3 41 8 83 9 92 27 139 27 970 0 1201 -2 15 -6 60 -10 100 -3 40 -8 83 -10
97 -2 14 -7 45 -10 70 -17 136 -29 212 -51 335 -9 44 -18 94 -20 110 -3 17
-17 82 -30 145 -176 817 -498 1590 -967 2320 -44 69 -94 144 -111 166 -17 23
-38 52 -46 64 -41 62 -203 277 -279 370 -47 58 -93 113 -101 124 -8 10 -20 23
-26 30 -5 6 -43 49 -84 96 -200 228 -545 564 -785 764 -38 32 -79 66 -90 75
-11 9 -58 46 -105 81 -47 36 -87 68 -90 71 -5 5 -128 96 -176 129 -120 83
-149 105 -152 112 -2 4 -8 8 -13 8 -5 0 -48 26 -97 59 -93 62 -329 206 -427
261 -140 77 -242 132 -267 141 -27 10 -27 11 -12 52 33 94 14 166 -53 193 -77
33 -150 37 -718 39 -313 1 -583 5 -600 8 -16 4 -57 12 -90 18 -33 6 -80 20
-105 32 -39 19 -45 27 -48 56 -8 81 32 151 178 311 41 45 80 87 85 93 87 100
56 225 -64 257 -40 11 -192 7 -211 -5 -4 -2 -22 -7 -41 -10 -56 -10 -241 -63
-504 -145 -49 -15 -135 -40 -190 -55 -55 -15 -120 -33 -145 -41 -44 -13 -158
-38 -222 -49 -18 -3 -44 -7 -58 -10 -14 -2 -48 -7 -77 -10 -46 -6 -51 -4 -47
12 4 18 42 218 50 263 4 25 10 53 19 100 23 111 5 145 -85 159 -53 9 -204 7
-264 -3 -175 -29 -346 -73 -646 -168 -52 -17 -132 -40 -178 -53 l-82 -23 50
55 c150 164 248 332 285 486 28 120 1 308 -56 389 -11 14 -19 30 -19 35 0 4
-19 27 -41 51 -98 102 -198 143 -344 142 -102 -1 -187 -18 -305 -61 -99 -36
-398 -182 -452 -220 -14 -11 -29 -19 -32 -19 -3 0 -29 -14 -58 -31 -29 -18
-66 -39 -83 -49 -16 -9 -95 -55 -175 -102 -200 -117 -473 -269 -545 -302 -33
-16 -82 -40 -110 -53 -27 -13 -84 -38 -125 -55 -319 -129 -545 -140 -659 -32
l-34 32 1 123 c1 129 27 302 53 351 5 10 7 18 5 18 -12 0 69 202 125 315 54
108 143 262 159 275 3 3 23 29 44 58 96 132 234 285 367 404 106 96 114 102
219 181 52 40 103 80 114 89 11 10 28 20 38 24 10 3 18 9 18 13 0 5 14 14 30
21 17 7 30 16 30 19 0 4 15 15 33 24 17 10 52 31 77 47 25 16 61 38 80 48 164
89 249 140 272 161 47 44 67 98 64 171 -3 72 -18 105 -65 151 -44 41 -90 59
-154 59 -45 0 -69 -8 -138 -44z m1223 -2071 c20 -27 -10 -138 -54 -200 -31
-43 -166 -200 -210 -245 -70 -72 -274 -253 -340 -304 l-36 -27 -59 16 c-32 9
-119 38 -193 65 -190 68 -210 73 -294 74 -41 0 -74 1 -73 2 1 1 27 15 57 31
69 36 104 57 110 63 5 5 19 13 105 60 17 9 56 32 88 51 32 19 66 39 75 44 38
22 180 104 215 124 20 11 54 31 75 42 44 26 272 140 322 162 47 21 171 56 190
54 8 -1 18 -6 22 -12z"/>
</g>
</svg>
